<?xml version="1.0" standalone="no"?>
<!DOCTYPE svg PUBLIC "-//W3C//DTD SVG 20010904//EN"
 "http://www.w3.org/TR/2001/REC-SVG-20010904/DTD/svg10.dtd">
<svg version="1.0" xmlns="http://www.w3.org/2000/svg"
 width="64.000000pt" height="64.000000pt" viewBox="0 0 64.000000 64.000000"
 preserveAspectRatio="xMidYMid meet">

<g transform="translate(0.000000,64.000000) scale(0.100000,-0.100000)"
fill="#000000" stroke="none">
<path d="M207 634 c-4 -4 -7 -55 -7 -114 0 -94 2 -109 20 -125 20 -18 20 -17
20 93 l0 112 160 0 160 0 0 -280 0 -280 -160 0 -160 0 0 112 c0 111 0 111 -20
93 -19 -17 -20 -29 -18 -129 l3 -111 195 0 195 0 0 315 0 315 -191 3 c-104 1
-193 -1 -197 -4z"/>
<path d="M160 372 l0 -32 -60 0 c-53 0 -60 -2 -60 -20 0 -18 7 -20 59 -20 58
0 60 -1 63 -27 l3 -28 37 41 37 41 -39 38 -40 39 0 -32z"/>
<path d="M484 329 c-10 -17 13 -36 27 -22 12 12 4 33 -11 33 -5 0 -12 -5 -16
-11z"/>
</g>
</svg>
